<svg width="290" height="210" viewBox="0 0 290 210" fill="none" xmlns="http://www.w3.org/2000/svg">
<g id="Color=Monocolor White">
<g id="Icon">
<path id="Vector" d="M110.325 123.661C104.831 123.661 100.386 119.215 100.386 113.722C100.386 108.228 104.831 103.782 110.325 103.782C115.819 103.782 120.265 108.228 120.265 113.722C120.265 119.215 115.819 123.661 110.325 123.661ZM290 143.795C290 108.794 261.711 80.2786 226.767 79.9105C227.022 75.7195 227.107 70.7639 226.767 65.5818C224.53 29.9017 197.345 3 163.562 3C129.779 3 100.357 31.3459 100.357 66.2048V87.4146C100.357 92.9082 104.803 97.3541 110.297 97.3541C115.79 97.3541 120.236 92.9082 120.236 87.4146V66.2048C120.236 42.3048 139.662 22.8789 163.562 22.8789C187.462 22.8789 205.33 41.7667 206.888 66.8278C207.596 78.0132 205.869 88.2642 205.869 88.3491L203.801 100.384L216.006 99.9876C221.16 99.8177 223.199 99.7894 226.087 99.7894C250.355 99.7894 270.064 119.527 270.064 143.767C270.064 168.006 250.327 187.744 226.087 187.744H120.236V139.972C120.236 134.478 115.79 130.033 110.297 130.033C104.803 130.033 100.357 134.478 100.357 139.972V207.623H226.087C261.314 207.623 289.972 178.965 289.972 143.738L290 143.795Z" fill="white"/>
<path id="Vector_2" d="M142.324 154.952C136.83 154.952 132.385 150.506 132.385 145.012C132.385 139.519 136.83 135.073 142.324 135.073C147.818 135.073 152.264 139.519 152.264 145.012C152.264 150.506 147.818 154.952 142.324 154.952ZM142.324 161.267C136.83 161.267 132.385 165.712 132.385 171.206V187.8H152.292V171.206C152.292 165.712 147.846 161.267 142.352 161.267H142.324ZM100.386 187.8H52.0194C34.3209 187.8 19.9072 173.386 19.9072 155.688C19.9072 137.99 34.3209 123.576 52.0194 123.576C54.2564 123.576 55.8422 123.576 59.8067 123.717L71.9549 124.086L69.916 112.079C69.916 112.079 68.6134 104.235 69.1515 95.7964C70.3125 77.4183 83.9049 63.571 100.782 63.571C117.659 63.571 132.385 77.7581 132.385 95.1734V118.96C132.385 124.454 136.83 128.9 142.324 128.9C147.818 128.9 152.264 124.454 152.264 118.96V95.1734C152.264 66.7709 129.156 43.692 100.782 43.692C72.408 43.692 51.1415 65.5532 49.3009 94.5504C49.1026 97.8069 49.1026 100.922 49.2159 103.754C21.8328 105.169 0 127.908 0 155.66C0 183.411 23.3337 207.679 52.0194 207.679H100.386V187.772V187.8Z" fill="white"/>
</g>
</g>
</svg>
